<svg width="24" height="24" viewBox="0 0 24 24" fill="none" xmlns="http://www.w3.org/2000/svg">
<g clip-path="url(#clip0_786_30)">
<path d="M18.7678 0H4.93889C3.6295 0.00158786 2.37418 0.528882 1.4483 1.46622C0.522418 2.40356 0.00156845 3.67441 0 5L0 19C0.00156845 20.3256 0.522418 21.5964 1.4483 22.5338C2.37418 23.4711 3.6295 23.9984 4.93889 24H18.7678C20.0772 23.9984 21.3325 23.4711 22.2584 22.5338C23.1842 21.5964 23.7051 20.3256 23.7067 19V5C23.7051 3.67441 23.1842 2.40356 22.2584 1.46622C21.3325 0.528882 20.0772 0.00158786 18.7678 0V0ZM6.91444 22V21C6.91444 19.6739 7.43479 18.4021 8.36101 17.4645C9.28723 16.5268 10.5435 16 11.8533 16C13.1632 16 14.4194 16.5268 15.3457 17.4645C16.2719 18.4021 16.7922 19.6739 16.7922 21V22H6.91444ZM21.7311 19C21.7311 19.7956 21.4189 20.5587 20.8632 21.1213C20.3074 21.6839 19.5537 22 18.7678 22V21C18.7678 19.1435 18.0393 17.363 16.7426 16.0503C15.4459 14.7375 13.6872 14 11.8533 14C10.0195 14 8.26079 14.7375 6.96408 16.0503C5.66737 17.363 4.93889 19.1435 4.93889 21V22C4.15296 22 3.39923 21.6839 2.8435 21.1213C2.28776 20.5587 1.97556 19.7956 1.97556 19V5C1.97556 4.20435 2.28776 3.44129 2.8435 2.87868C3.39923 2.31607 4.15296 2 4.93889 2H18.7678C19.5537 2 20.3074 2.31607 20.8632 2.87868C21.4189 3.44129 21.7311 4.20435 21.7311 5V19Z" fill="white"/>
<path d="M11.8533 4C11.0719 4 10.308 4.2346 9.65822 4.67412C9.00846 5.11365 8.50203 5.73836 8.20298 6.46927C7.90393 7.20017 7.82569 8.00444 7.97814 8.78036C8.1306 9.55629 8.5069 10.269 9.05948 10.8284C9.61205 11.3878 10.3161 11.7688 11.0825 11.9231C11.849 12.0775 12.6434 11.9983 13.3654 11.6955C14.0873 11.3928 14.7044 10.8801 15.1386 10.2223C15.5727 9.56448 15.8044 8.79113 15.8044 8C15.8044 6.93913 15.3882 5.92172 14.6472 5.17157C13.9062 4.42143 12.9012 4 11.8533 4ZM11.8533 10C11.4626 10 11.0807 9.8827 10.7558 9.66294C10.4309 9.44318 10.1777 9.13082 10.0282 8.76537C9.87863 8.39991 9.83951 7.99778 9.91574 7.60982C9.99197 7.22186 10.1801 6.86549 10.4564 6.58579C10.7327 6.30608 11.0847 6.1156 11.4679 6.03843C11.8511 5.96126 12.2484 6.00087 12.6093 6.15224C12.9703 6.30362 13.2789 6.55996 13.4959 6.88886C13.713 7.21776 13.8289 7.60444 13.8289 8C13.8289 8.53043 13.6208 9.03914 13.2503 9.41421C12.8798 9.78929 12.3773 10 11.8533 10Z" fill="white"/>
</g>
<defs>
<clipPath id="clip0_786_30">
<rect width="23.7067" height="24" fill="white"/>
</clipPath>
</defs>
</svg>
