<svg width="24" height="24" viewBox="0 0 24 24" fill="none" xmlns="http://www.w3.org/2000/svg">
<g clip-path="url(#clip0_784_18)">
<path d="M22.485 10.975L12 17.267L1.515 10.975C1.28758 10.8386 1.01526 10.7981 0.757962 10.8624C0.500662 10.9267 0.279453 11.0906 0.143 11.318C0.00654566 11.5455 -0.0339759 11.8178 0.030349 12.0751C0.094674 12.3324 0.258576 12.5536 0.486 12.69L11.486 19.29C11.6415 19.3835 11.8196 19.4328 12.001 19.4328C12.1824 19.4328 12.3605 19.3835 12.516 19.29L23.516 12.69C23.7434 12.5536 23.9073 12.3324 23.9717 12.0751C24.036 11.8178 23.9955 11.5455 23.859 11.318C23.7225 11.0906 23.5013 10.9267 23.244 10.8624C22.9867 10.7981 22.7144 10.8386 22.487 10.975H22.485Z" fill="black"/>
<path d="M22.485 15.543L12 21.834L1.515 15.543C1.40239 15.4755 1.27757 15.4307 1.14768 15.4114C1.01779 15.3921 0.885361 15.3985 0.757959 15.4304C0.630557 15.4622 0.510676 15.5189 0.40516 15.597C0.299645 15.6752 0.210562 15.7734 0.142997 15.886C0.0754315 15.9986 0.0307078 16.1234 0.0113792 16.2533C-0.00794938 16.3832 -0.00150444 16.5157 0.0303461 16.6431C0.094671 16.9004 0.258573 17.1216 0.485997 17.258L11.486 23.858C11.6415 23.9515 11.8196 24.0008 12.001 24.0008C12.1824 24.0008 12.3605 23.9515 12.516 23.858L23.516 17.258C23.7434 17.1216 23.9073 16.9004 23.9716 16.6431C24.036 16.3858 23.9954 16.1134 23.859 15.886C23.7225 15.6586 23.5013 15.4947 23.244 15.4304C22.9867 15.366 22.7144 15.4066 22.487 15.543H22.485Z" fill="black"/>
<path d="M12 14.7731C11.4606 14.7728 10.9314 14.6259 10.469 14.3481L0.484989 8.35706C0.337136 8.26815 0.2148 8.14251 0.12987 7.99234C0.0449394 7.84217 0.000305176 7.67258 0.000305176 7.50006C0.000305176 7.32753 0.0449394 7.15794 0.12987 7.00777C0.2148 6.8576 0.337136 6.73196 0.484989 6.64306L10.469 0.652056C10.9314 0.374285 11.4606 0.227539 12 0.227539C12.5394 0.227539 13.0686 0.374285 13.531 0.652056L23.515 6.64306C23.6628 6.73196 23.7852 6.8576 23.8701 7.00777C23.955 7.15794 23.9997 7.32753 23.9997 7.50006C23.9997 7.67258 23.955 7.84217 23.8701 7.99234C23.7852 8.14251 23.6628 8.26815 23.515 8.35706L13.531 14.3481C13.0686 14.6259 12.5394 14.7728 12 14.7731ZM2.94399 7.50006L11.5 12.6331C11.6511 12.7235 11.8239 12.7712 12 12.7712C12.1761 12.7712 12.3489 12.7235 12.5 12.6331L21.056 7.50006L12.5 2.36706C12.3489 2.27666 12.1761 2.22892 12 2.22892C11.8239 2.22892 11.6511 2.27666 11.5 2.36706L2.94399 7.50006Z" fill="black"/>
</g>
<defs>
<clipPath id="clip0_784_18">
<rect width="24" height="24" fill="white"/>
</clipPath>
</defs>
</svg>
