<svg width="62" height="40" viewBox="0 0 62 40" fill="none" xmlns="http://www.w3.org/2000/svg">
<path d="M22 21.5002L42 1L60.4718 21.1914M22 21.5002L22.4633 21.0216M22 21.5002V26.5M60.14 20.8287L60.4718 21.1914M60.4718 21.1914V38.5124L22 39V36" stroke="black" stroke-width="1.97" stroke-linecap="round" stroke-linejoin="round"/>
<mask id="path-2-inside-1_403_7" fill="white">
<path d="M27.7709 28.2935C28.4303 28.2935 28.9603 28.5217 29.3611 28.9783C29.7683 29.4275 29.9719 30.058 29.9719 30.8696V34.4022H28.6145V31.0761C28.6145 30.6051 28.5078 30.2464 28.2945 30C28.0812 29.7464 27.7903 29.6196 27.4219 29.6196C27.0534 29.6196 26.7593 29.7464 26.5395 30C26.3262 30.2464 26.2195 30.6051 26.2195 31.0761V34.4022H24.8621V31.0761C24.8621 30.6051 24.7554 30.2464 24.5421 30C24.3288 29.7464 24.0379 29.6196 23.6695 29.6196C23.2945 29.6196 22.9972 29.7464 22.7774 30C22.5641 30.2464 22.4574 30.6051 22.4574 31.0761V34.4022H21.1V28.3804H22.4574V29.1087C22.632 28.8551 22.855 28.6558 23.1265 28.5109C23.4044 28.3659 23.7082 28.2935 24.0379 28.2935C24.4581 28.2935 24.833 28.3949 25.1627 28.5978C25.4923 28.7935 25.7477 29.0761 25.9286 29.4457C26.1032 29.0978 26.3553 28.8188 26.6849 28.6087C27.0211 28.3986 27.3831 28.2935 27.7709 28.2935Z"/>
<path d="M33.6453 34.5C33.1282 34.5 32.6628 34.3732 32.2491 34.1196C31.8354 33.8587 31.5089 33.4928 31.2698 33.0217C31.0371 32.5507 30.9207 32.0072 30.9207 31.3913C30.9207 30.7754 31.0403 30.2319 31.2795 29.7609C31.5251 29.2899 31.858 28.9275 32.2782 28.6739C32.6983 28.413 33.167 28.2826 33.6841 28.2826C34.2012 28.2826 34.6699 28.413 35.0901 28.6739C35.5102 28.9275 35.8399 29.2899 36.0791 29.7609C36.3247 30.2319 36.4475 30.7754 36.4475 31.3913C36.4475 32.0072 36.3215 32.5507 36.0694 33.0217C35.8237 33.4928 35.4876 33.8587 35.061 34.1196C34.6408 34.3732 34.1689 34.5 33.6453 34.5ZM33.6453 33.1739C33.891 33.1739 34.1204 33.1087 34.3338 32.9783C34.5535 32.8406 34.7281 32.6377 34.8573 32.3696C34.9866 32.1014 35.0513 31.7754 35.0513 31.3913C35.0513 30.8188 34.9155 30.3804 34.644 30.0761C34.379 29.7645 34.0526 29.6087 33.6647 29.6087C33.2769 29.6087 32.9504 29.7645 32.6854 30.0761C32.4268 30.3804 32.2976 30.8188 32.2976 31.3913C32.2976 31.9638 32.4236 32.4058 32.6757 32.7174C32.9343 33.0217 33.2575 33.1739 33.6453 33.1739ZM34.7992 26.7391L32.5691 27.8804V26.7935L34.7992 25.5V26.7391Z"/>
<path d="M39.6831 33L41.0405 28.3804H42.4852L40.4975 34.4022H38.8492L36.8712 28.3804H38.3256L39.6831 33Z"/>
<path d="M48.2412 31.2609C48.2412 31.4783 48.2283 31.6739 48.2024 31.8478H44.2755C44.3078 32.2826 44.4435 32.6232 44.6827 32.8696C44.9219 33.1159 45.216 33.2391 45.5651 33.2391C46.0693 33.2391 46.428 32.9964 46.6413 32.5109H48.1054C47.9503 33.0906 47.653 33.5688 47.2134 33.9457C46.7738 34.3152 46.2341 34.5 45.5941 34.5C45.077 34.5 44.6116 34.3732 44.1979 34.1196C43.7907 33.8587 43.4707 33.4928 43.238 33.0217C43.0117 32.5507 42.8986 32.0072 42.8986 31.3913C42.8986 30.7681 43.0117 30.221 43.238 29.75C43.4642 29.279 43.781 28.9167 44.1882 28.663C44.5954 28.4094 45.0641 28.2826 45.5941 28.2826C46.1048 28.2826 46.5605 28.4058 46.9613 28.6522C47.3685 28.8986 47.682 29.25 47.9018 29.7065C48.1281 30.1558 48.2412 30.6739 48.2412 31.2609ZM46.8352 30.8261C46.8288 30.4348 46.7027 30.1232 46.4571 29.8913C46.2115 29.6522 45.9109 29.5326 45.5554 29.5326C45.2192 29.5326 44.9348 29.6486 44.7021 29.8804C44.4759 30.1051 44.3369 30.4203 44.2852 30.8261H46.8352Z"/>
<path d="M49.9204 27.663C49.6813 27.663 49.4809 27.5797 49.3193 27.413C49.1641 27.2391 49.0866 27.0254 49.0866 26.7717C49.0866 26.5181 49.1641 26.308 49.3193 26.1413C49.4809 25.9674 49.6813 25.8804 49.9204 25.8804C50.1596 25.8804 50.3568 25.9674 50.5119 26.1413C50.6735 26.308 50.7543 26.5181 50.7543 26.7717C50.7543 27.0254 50.6735 27.2391 50.5119 27.413C50.3568 27.5797 50.1596 27.663 49.9204 27.663ZM50.5895 28.3804V34.4022H49.232V28.3804H50.5895Z"/>
<path d="M53.9862 34.5C53.5467 34.5 53.1524 34.413 52.8033 34.2391C52.4542 34.058 52.1763 33.8152 51.9694 33.5109C51.769 33.2065 51.6591 32.8696 51.6398 32.5H53.0069C53.0328 32.7319 53.133 32.9239 53.3075 33.0761C53.4885 33.2283 53.7115 33.3043 53.9765 33.3043C54.2351 33.3043 54.4355 33.2464 54.5777 33.1304C54.7264 33.0145 54.8007 32.8659 54.8007 32.6848C54.8007 32.4891 54.7102 32.3442 54.5292 32.25C54.3547 32.1486 54.0735 32.0399 53.6856 31.9239C53.2849 31.8152 52.9552 31.7029 52.6966 31.587C52.4445 31.471 52.2248 31.2935 52.0373 31.0543C51.8563 30.8152 51.7658 30.4928 51.7658 30.087C51.7658 29.7536 51.8498 29.4493 52.0179 29.1739C52.1924 28.8986 52.4381 28.6812 52.7548 28.5217C53.078 28.3623 53.4562 28.2826 53.8893 28.2826C54.5292 28.2826 55.0399 28.4638 55.4212 28.8261C55.8026 29.1812 56.0127 29.663 56.0515 30.2717H54.7522C54.7328 30.0326 54.6423 29.8442 54.4807 29.7065C54.3256 29.5616 54.1155 29.4891 53.8505 29.4891C53.6048 29.4891 53.4141 29.5399 53.2784 29.6413C53.1491 29.7428 53.0845 29.8841 53.0845 30.0652C53.0845 30.2681 53.175 30.4239 53.356 30.5326C53.537 30.6341 53.8181 30.7391 54.1995 30.8478C54.5874 30.9565 54.9074 31.0688 55.1595 31.1848C55.4115 31.3007 55.6281 31.4819 55.8091 31.7283C55.9965 31.9674 56.0935 32.2862 56.1 32.6848C56.1 33.0326 56.0127 33.3442 55.8382 33.6196C55.6701 33.8949 55.4245 34.1123 55.1013 34.2717C54.7845 34.4239 54.4128 34.5 53.9862 34.5Z"/>
</mask>
<path d="M27.7709 28.2935C28.4303 28.2935 28.9603 28.5217 29.3611 28.9783C29.7683 29.4275 29.9719 30.058 29.9719 30.8696V34.4022H28.6145V31.0761C28.6145 30.6051 28.5078 30.2464 28.2945 30C28.0812 29.7464 27.7903 29.6196 27.4219 29.6196C27.0534 29.6196 26.7593 29.7464 26.5395 30C26.3262 30.2464 26.2195 30.6051 26.2195 31.0761V34.4022H24.8621V31.0761C24.8621 30.6051 24.7554 30.2464 24.5421 30C24.3288 29.7464 24.0379 29.6196 23.6695 29.6196C23.2945 29.6196 22.9972 29.7464 22.7774 30C22.5641 30.2464 22.4574 30.6051 22.4574 31.0761V34.4022H21.1V28.3804H22.4574V29.1087C22.632 28.8551 22.855 28.6558 23.1265 28.5109C23.4044 28.3659 23.7082 28.2935 24.0379 28.2935C24.4581 28.2935 24.833 28.3949 25.1627 28.5978C25.4923 28.7935 25.7477 29.0761 25.9286 29.4457C26.1032 29.0978 26.3553 28.8188 26.6849 28.6087C27.0211 28.3986 27.3831 28.2935 27.7709 28.2935Z" fill="black"/>
<path d="M33.6453 34.5C33.1282 34.5 32.6628 34.3732 32.2491 34.1196C31.8354 33.8587 31.5089 33.4928 31.2698 33.0217C31.0371 32.5507 30.9207 32.0072 30.9207 31.3913C30.9207 30.7754 31.0403 30.2319 31.2795 29.7609C31.5251 29.2899 31.858 28.9275 32.2782 28.6739C32.6983 28.413 33.167 28.2826 33.6841 28.2826C34.2012 28.2826 34.6699 28.413 35.0901 28.6739C35.5102 28.9275 35.8399 29.2899 36.0791 29.7609C36.3247 30.2319 36.4475 30.7754 36.4475 31.3913C36.4475 32.0072 36.3215 32.5507 36.0694 33.0217C35.8237 33.4928 35.4876 33.8587 35.061 34.1196C34.6408 34.3732 34.1689 34.5 33.6453 34.5ZM33.6453 33.1739C33.891 33.1739 34.1204 33.1087 34.3338 32.9783C34.5535 32.8406 34.7281 32.6377 34.8573 32.3696C34.9866 32.1014 35.0513 31.7754 35.0513 31.3913C35.0513 30.8188 34.9155 30.3804 34.644 30.0761C34.379 29.7645 34.0526 29.6087 33.6647 29.6087C33.2769 29.6087 32.9504 29.7645 32.6854 30.0761C32.4268 30.3804 32.2976 30.8188 32.2976 31.3913C32.2976 31.9638 32.4236 32.4058 32.6757 32.7174C32.9343 33.0217 33.2575 33.1739 33.6453 33.1739ZM34.7992 26.7391L32.5691 27.8804V26.7935L34.7992 25.5V26.7391Z" fill="black"/>
<path d="M39.6831 33L41.0405 28.3804H42.4852L40.4975 34.4022H38.8492L36.8712 28.3804H38.3256L39.6831 33Z" fill="black"/>
<path d="M48.2412 31.2609C48.2412 31.4783 48.2283 31.6739 48.2024 31.8478H44.2755C44.3078 32.2826 44.4435 32.6232 44.6827 32.8696C44.9219 33.1159 45.216 33.2391 45.5651 33.2391C46.0693 33.2391 46.428 32.9964 46.6413 32.5109H48.1054C47.9503 33.0906 47.653 33.5688 47.2134 33.9457C46.7738 34.3152 46.2341 34.5 45.5941 34.5C45.077 34.5 44.6116 34.3732 44.1979 34.1196C43.7907 33.8587 43.4707 33.4928 43.238 33.0217C43.0117 32.5507 42.8986 32.0072 42.8986 31.3913C42.8986 30.7681 43.0117 30.221 43.238 29.75C43.4642 29.279 43.781 28.9167 44.1882 28.663C44.5954 28.4094 45.0641 28.2826 45.5941 28.2826C46.1048 28.2826 46.5605 28.4058 46.9613 28.6522C47.3685 28.8986 47.682 29.25 47.9018 29.7065C48.1281 30.1558 48.2412 30.6739 48.2412 31.2609ZM46.8352 30.8261C46.8288 30.4348 46.7027 30.1232 46.4571 29.8913C46.2115 29.6522 45.9109 29.5326 45.5554 29.5326C45.2192 29.5326 44.9348 29.6486 44.7021 29.8804C44.4759 30.1051 44.3369 30.4203 44.2852 30.8261H46.8352Z" fill="black"/>
<path d="M49.9204 27.663C49.6813 27.663 49.4809 27.5797 49.3193 27.413C49.1641 27.2391 49.0866 27.0254 49.0866 26.7717C49.0866 26.5181 49.1641 26.308 49.3193 26.1413C49.4809 25.9674 49.6813 25.8804 49.9204 25.8804C50.1596 25.8804 50.3568 25.9674 50.5119 26.1413C50.6735 26.308 50.7543 26.5181 50.7543 26.7717C50.7543 27.0254 50.6735 27.2391 50.5119 27.413C50.3568 27.5797 50.1596 27.663 49.9204 27.663ZM50.5895 28.3804V34.4022H49.232V28.3804H50.5895Z" fill="black"/>
<path d="M53.9862 34.5C53.5467 34.5 53.1524 34.413 52.8033 34.2391C52.4542 34.058 52.1763 33.8152 51.9694 33.5109C51.769 33.2065 51.6591 32.8696 51.6398 32.5H53.0069C53.0328 32.7319 53.133 32.9239 53.3075 33.0761C53.4885 33.2283 53.7115 33.3043 53.9765 33.3043C54.2351 33.3043 54.4355 33.2464 54.5777 33.1304C54.7264 33.0145 54.8007 32.8659 54.8007 32.6848C54.8007 32.4891 54.7102 32.3442 54.5292 32.25C54.3547 32.1486 54.0735 32.0399 53.6856 31.9239C53.2849 31.8152 52.9552 31.7029 52.6966 31.587C52.4445 31.471 52.2248 31.2935 52.0373 31.0543C51.8563 30.8152 51.7658 30.4928 51.7658 30.087C51.7658 29.7536 51.8498 29.4493 52.0179 29.1739C52.1924 28.8986 52.4381 28.6812 52.7548 28.5217C53.078 28.3623 53.4562 28.2826 53.8893 28.2826C54.5292 28.2826 55.0399 28.4638 55.4212 28.8261C55.8026 29.1812 56.0127 29.663 56.0515 30.2717H54.7522C54.7328 30.0326 54.6423 29.8442 54.4807 29.7065C54.3256 29.5616 54.1155 29.4891 53.8505 29.4891C53.6048 29.4891 53.4141 29.5399 53.2784 29.6413C53.1491 29.7428 53.0845 29.8841 53.0845 30.0652C53.0845 30.2681 53.175 30.4239 53.356 30.5326C53.537 30.6341 53.8181 30.7391 54.1995 30.8478C54.5874 30.9565 54.9074 31.0688 55.1595 31.1848C55.4115 31.3007 55.6281 31.4819 55.8091 31.7283C55.9965 31.9674 56.0935 32.2862 56.1 32.6848C56.1 33.0326 56.0127 33.3442 55.8382 33.6196C55.6701 33.8949 55.4245 34.1123 55.1013 34.2717C54.7845 34.4239 54.4128 34.5 53.9862 34.5Z" fill="black"/>
<path d="M27.7709 28.2935C28.4303 28.2935 28.9603 28.5217 29.3611 28.9783C29.7683 29.4275 29.9719 30.058 29.9719 30.8696V34.4022H28.6145V31.0761C28.6145 30.6051 28.5078 30.2464 28.2945 30C28.0812 29.7464 27.7903 29.6196 27.4219 29.6196C27.0534 29.6196 26.7593 29.7464 26.5395 30C26.3262 30.2464 26.2195 30.6051 26.2195 31.0761V34.4022H24.8621V31.0761C24.8621 30.6051 24.7554 30.2464 24.5421 30C24.3288 29.7464 24.0379 29.6196 23.6695 29.6196C23.2945 29.6196 22.9972 29.7464 22.7774 30C22.5641 30.2464 22.4574 30.6051 22.4574 31.0761V34.4022H21.1V28.3804H22.4574V29.1087C22.632 28.8551 22.855 28.6558 23.1265 28.5109C23.4044 28.3659 23.7082 28.2935 24.0379 28.2935C24.4581 28.2935 24.833 28.3949 25.1627 28.5978C25.4923 28.7935 25.7477 29.0761 25.9286 29.4457C26.1032 29.0978 26.3553 28.8188 26.6849 28.6087C27.0211 28.3986 27.3831 28.2935 27.7709 28.2935Z" stroke="black" stroke-width="4" mask="url(#path-2-inside-1_403_7)"/>
<path d="M33.6453 34.5C33.1282 34.5 32.6628 34.3732 32.2491 34.1196C31.8354 33.8587 31.5089 33.4928 31.2698 33.0217C31.0371 32.5507 30.9207 32.0072 30.9207 31.3913C30.9207 30.7754 31.0403 30.2319 31.2795 29.7609C31.5251 29.2899 31.858 28.9275 32.2782 28.6739C32.6983 28.413 33.167 28.2826 33.6841 28.2826C34.2012 28.2826 34.6699 28.413 35.0901 28.6739C35.5102 28.9275 35.8399 29.2899 36.0791 29.7609C36.3247 30.2319 36.4475 30.7754 36.4475 31.3913C36.4475 32.0072 36.3215 32.5507 36.0694 33.0217C35.8237 33.4928 35.4876 33.8587 35.061 34.1196C34.6408 34.3732 34.1689 34.5 33.6453 34.5ZM33.6453 33.1739C33.891 33.1739 34.1204 33.1087 34.3338 32.9783C34.5535 32.8406 34.7281 32.6377 34.8573 32.3696C34.9866 32.1014 35.0513 31.7754 35.0513 31.3913C35.0513 30.8188 34.9155 30.3804 34.644 30.0761C34.379 29.7645 34.0526 29.6087 33.6647 29.6087C33.2769 29.6087 32.9504 29.7645 32.6854 30.0761C32.4268 30.3804 32.2976 30.8188 32.2976 31.3913C32.2976 31.9638 32.4236 32.4058 32.6757 32.7174C32.9343 33.0217 33.2575 33.1739 33.6453 33.1739ZM34.7992 26.7391L32.5691 27.8804V26.7935L34.7992 25.5V26.7391Z" stroke="black" stroke-width="4" mask="url(#path-2-inside-1_403_7)"/>
<path d="M39.6831 33L41.0405 28.3804H42.4852L40.4975 34.4022H38.8492L36.8712 28.3804H38.3256L39.6831 33Z" stroke="black" stroke-width="4" mask="url(#path-2-inside-1_403_7)"/>
<path d="M48.2412 31.2609C48.2412 31.4783 48.2283 31.6739 48.2024 31.8478H44.2755C44.3078 32.2826 44.4435 32.6232 44.6827 32.8696C44.9219 33.1159 45.216 33.2391 45.5651 33.2391C46.0693 33.2391 46.428 32.9964 46.6413 32.5109H48.1054C47.9503 33.0906 47.653 33.5688 47.2134 33.9457C46.7738 34.3152 46.2341 34.5 45.5941 34.5C45.077 34.5 44.6116 34.3732 44.1979 34.1196C43.7907 33.8587 43.4707 33.4928 43.238 33.0217C43.0117 32.5507 42.8986 32.0072 42.8986 31.3913C42.8986 30.7681 43.0117 30.221 43.238 29.75C43.4642 29.279 43.781 28.9167 44.1882 28.663C44.5954 28.4094 45.0641 28.2826 45.5941 28.2826C46.1048 28.2826 46.5605 28.4058 46.9613 28.6522C47.3685 28.8986 47.682 29.25 47.9018 29.7065C48.1281 30.1558 48.2412 30.6739 48.2412 31.2609ZM46.8352 30.8261C46.8288 30.4348 46.7027 30.1232 46.4571 29.8913C46.2115 29.6522 45.9109 29.5326 45.5554 29.5326C45.2192 29.5326 44.9348 29.6486 44.7021 29.8804C44.4759 30.1051 44.3369 30.4203 44.2852 30.8261H46.8352Z" stroke="black" stroke-width="4" mask="url(#path-2-inside-1_403_7)"/>
<path d="M49.9204 27.663C49.6813 27.663 49.4809 27.5797 49.3193 27.413C49.1641 27.2391 49.0866 27.0254 49.0866 26.7717C49.0866 26.5181 49.1641 26.308 49.3193 26.1413C49.4809 25.9674 49.6813 25.8804 49.9204 25.8804C50.1596 25.8804 50.3568 25.9674 50.5119 26.1413C50.6735 26.308 50.7543 26.5181 50.7543 26.7717C50.7543 27.0254 50.6735 27.2391 50.5119 27.413C50.3568 27.5797 50.1596 27.663 49.9204 27.663ZM50.5895 28.3804V34.4022H49.232V28.3804H50.5895Z" stroke="black" stroke-width="4" mask="url(#path-2-inside-1_403_7)"/>
<path d="M53.9862 34.5C53.5467 34.5 53.1524 34.413 52.8033 34.2391C52.4542 34.058 52.1763 33.8152 51.9694 33.5109C51.769 33.2065 51.6591 32.8696 51.6398 32.5H53.0069C53.0328 32.7319 53.133 32.9239 53.3075 33.0761C53.4885 33.2283 53.7115 33.3043 53.9765 33.3043C54.2351 33.3043 54.4355 33.2464 54.5777 33.1304C54.7264 33.0145 54.8007 32.8659 54.8007 32.6848C54.8007 32.4891 54.7102 32.3442 54.5292 32.25C54.3547 32.1486 54.0735 32.0399 53.6856 31.9239C53.2849 31.8152 52.9552 31.7029 52.6966 31.587C52.4445 31.471 52.2248 31.2935 52.0373 31.0543C51.8563 30.8152 51.7658 30.4928 51.7658 30.087C51.7658 29.7536 51.8498 29.4493 52.0179 29.1739C52.1924 28.8986 52.4381 28.6812 52.7548 28.5217C53.078 28.3623 53.4562 28.2826 53.8893 28.2826C54.5292 28.2826 55.0399 28.4638 55.4212 28.8261C55.8026 29.1812 56.0127 29.663 56.0515 30.2717H54.7522C54.7328 30.0326 54.6423 29.8442 54.4807 29.7065C54.3256 29.5616 54.1155 29.4891 53.8505 29.4891C53.6048 29.4891 53.4141 29.5399 53.2784 29.6413C53.1491 29.7428 53.0845 29.8841 53.0845 30.0652C53.0845 30.2681 53.175 30.4239 53.356 30.5326C53.537 30.6341 53.8181 30.7391 54.1995 30.8478C54.5874 30.9565 54.9074 31.0688 55.1595 31.1848C55.4115 31.3007 55.6281 31.4819 55.8091 31.7283C55.9965 31.9674 56.0935 32.2862 56.1 32.6848C56.1 33.0326 56.0127 33.3442 55.8382 33.6196C55.6701 33.8949 55.4245 34.1123 55.1013 34.2717C54.7845 34.4239 54.4128 34.5 53.9862 34.5Z" stroke="black" stroke-width="4" mask="url(#path-2-inside-1_403_7)"/>
<path d="M11 24.5V34.5H8.97635V27.9957L6.27332 34.5H4.74113L2.02365 27.9957V34.5H0V24.5H2.29829L5.50723 31.9355L8.71616 24.5H11Z" fill="#FEAE49"/>
<path d="M20 24.5L16.5351 31.0186V34.5H14.4796V31.0186L11 24.5H13.3197L15.522 29.0702L17.7096 24.5H20Z" fill="#57BEE6"/>
</svg>
