<svg width="24" height="24" viewBox="0 0 24 24" fill="none" xmlns="http://www.w3.org/2000/svg">
<path d="M11.9541 1.82639e-05C9.84592 7.76941e-05 7.77549 0.559438 5.9541 1.62102C5.9084 1.6442 5.8646 1.67095 5.8231 1.70102C3.33682 3.18977 1.47474 5.5296 0.58217 8.28664C-0.310404 11.0437 -0.172919 14.0309 0.969132 16.6943C2.11118 19.3577 4.18031 21.5166 6.79283 22.7706C9.40535 24.0247 12.384 24.2889 15.1764 23.5141C17.9689 22.7394 20.3857 20.9783 21.9786 18.5575C23.5715 16.1366 24.2326 13.2202 23.8391 10.3492C23.4457 7.47806 22.0244 4.84705 19.8389 2.94399C17.6535 1.04094 14.852 -0.00504048 11.9541 1.82639e-05ZM20.9761 16.285C17.2836 17.4271 13.3051 17.2161 9.7541 15.69C10.388 14.7076 11.1899 13.8444 12.1231 13.14C13.5366 13.7116 15.0464 14.0079 16.5711 14.013C18.4261 14.0128 20.2562 13.5851 21.9191 12.763C21.8254 13.9853 21.5056 15.1795 20.9761 16.285ZM21.8291 10.503C20.9219 11.0679 19.93 11.4835 18.8911 11.734C18.6757 8.53091 17.6169 5.44177 15.8221 2.78002C17.3998 3.44603 18.7803 4.5054 19.832 5.85694C20.8836 7.20847 21.5712 8.80706 21.8291 10.5V10.503ZM12.7031 2.03802C15.1979 4.77757 16.68 8.28843 16.9031 11.987C15.5366 12.0338 14.175 11.7989 12.9031 11.297C12.8047 9.62476 12.3581 7.9915 11.592 6.5018C10.8258 5.0121 9.75708 3.69881 8.4541 2.64602C9.57229 2.22149 10.758 2.00263 11.9541 2.00002C12.2071 2.00002 12.4541 2.01902 12.7031 2.03802ZM6.4411 3.66502C7.3805 4.27761 8.21037 5.04359 8.8961 5.93102C5.8986 7.94108 3.56426 10.7946 2.1881 14.131C1.75328 12.161 1.92713 10.1054 2.68661 8.23646C3.4461 6.36749 4.75539 4.7733 6.4411 3.66502ZM3.3101 17.005C4.30837 13.1866 6.66127 9.86165 9.9301 7.65002C10.522 8.86609 10.8599 10.19 10.9231 11.541C9.57379 12.5664 8.45628 13.8652 7.64375 15.3524C6.83122 16.8396 6.34199 18.4816 6.2081 20.171C5.02553 19.3365 4.03703 18.2566 3.3101 17.005ZM11.9541 22C10.6603 21.9997 9.37909 21.7469 8.1821 21.256C8.16007 19.9661 8.38828 18.6841 8.8541 17.481C12.141 18.9402 15.7912 19.3754 19.3291 18.73C18.3958 19.7592 17.2575 20.5817 15.9874 21.1449C14.7173 21.708 13.3434 21.9993 11.9541 22Z" fill="black"/>
</svg>
