<svg width="25" height="24" viewBox="0 0 25 24" fill="none" xmlns="http://www.w3.org/2000/svg">
<path d="M20.333 14.667C19.5769 14.6676 18.8323 14.8522 18.1635 15.2048C17.4947 15.5574 16.9217 16.0675 16.494 16.691L9.98499 13.752C10.4473 12.6356 10.4491 11.3817 9.98999 10.264L16.49 7.31C17.1239 8.22676 18.0653 8.88597 19.1436 9.16805C20.2219 9.45013 21.3655 9.33641 22.3671 8.8475C23.3687 8.3586 24.1619 7.5269 24.6028 6.50327C25.0438 5.47964 25.1032 4.33187 24.7704 3.26818C24.4375 2.20448 23.7345 1.2953 22.7887 0.705558C21.843 0.115817 20.7172 -0.115424 19.6155 0.0537794C18.5139 0.222983 17.5094 0.781424 16.7842 1.62781C16.0591 2.47419 15.6613 3.55245 15.663 4.667C15.6672 4.9308 15.694 5.19376 15.743 5.453L8.83299 8.593C8.16933 7.97122 7.3385 7.55684 6.44257 7.40076C5.54663 7.24469 4.62462 7.35372 3.7898 7.71446C2.95498 8.0752 2.24372 8.67194 1.74339 9.43137C1.24306 10.1908 0.975459 11.0798 0.973461 11.9893C0.971463 12.8987 1.23516 13.7889 1.73214 14.5505C2.22913 15.3121 2.93777 15.912 3.77099 16.2764C4.60422 16.6408 5.52574 16.7539 6.42235 16.6017C7.31896 16.4496 8.15161 16.0389 8.81799 15.42L15.746 18.548C15.6979 18.807 15.6714 19.0696 15.667 19.333C15.6668 20.2561 15.9404 21.1586 16.4531 21.9262C16.9658 22.6939 17.6947 23.2922 18.5475 23.6456C19.4004 23.9989 20.3388 24.0914 21.2442 23.9114C22.1496 23.7313 22.9813 23.2868 23.6341 22.6341C24.2868 21.9813 24.7313 21.1496 24.9114 20.2442C25.0914 19.3388 24.9989 18.4004 24.6455 17.5476C24.2922 16.6947 23.6939 15.9659 22.9262 15.4531C22.1586 14.9404 21.2561 14.6668 20.333 14.667ZM20.333 2C20.8605 1.99981 21.3763 2.15605 21.815 2.44899C22.2537 2.74192 22.5957 3.15838 22.7977 3.64569C22.9997 4.13301 23.0527 4.66928 22.9499 5.1867C22.8471 5.70411 22.5931 6.17942 22.2202 6.5525C21.8473 6.92559 21.372 7.1797 20.8547 7.28268C20.3373 7.38567 19.801 7.33291 19.3136 7.13109C18.8262 6.92926 18.4096 6.58742 18.1165 6.14881C17.8234 5.71021 17.667 5.19453 17.667 4.667C17.6675 3.96001 17.9485 3.2821 18.4484 2.78209C18.9482 2.28207 19.626 2.0008 20.333 2ZM5.66699 14.667C5.13947 14.6672 4.62373 14.511 4.18502 14.218C3.7463 13.9251 3.40431 13.5086 3.20229 13.0213C3.00028 12.534 2.94732 11.9977 3.05012 11.4803C3.15291 10.9629 3.40684 10.4876 3.77979 10.1145C4.15273 9.74142 4.62795 9.48731 5.14532 9.38432C5.66269 9.28133 6.19899 9.33409 6.68638 9.53592C7.17377 9.73775 7.59036 10.0796 7.88345 10.5182C8.17655 10.9568 8.33299 11.4725 8.33299 12C8.3322 12.7069 8.0511 13.3847 7.55132 13.8846C7.05155 14.3846 6.37391 14.6659 5.66699 14.667ZM20.333 22C19.8055 22 19.2899 21.8436 18.8513 21.5505C18.4127 21.2575 18.0709 20.841 17.869 20.3536C17.6671 19.8663 17.6143 19.33 17.7172 18.8127C17.8201 18.2954 18.0742 17.8201 18.4471 17.4471C18.8201 17.0742 19.2953 16.8202 19.8127 16.7172C20.33 16.6143 20.8663 16.6672 21.3536 16.869C21.8409 17.0709 22.2575 17.4127 22.5505 17.8513C22.8436 18.2899 23 18.8055 23 19.333C22.9995 20.0402 22.7183 20.7182 22.2183 21.2183C21.7182 21.7183 21.0402 21.9995 20.333 22Z" fill="#C0C0BE"/>
</svg>
